<svg xmlns="http://www.w3.org/2000/svg" xmlns:xlink="http://www.w3.org/1999/xlink" viewBox="-3348 -11996 30 30">
  <defs>
    <style>
      .cls-1 {
        fill: url(#radial-gradient);
      }

      .cls-2 {
        fill: #ff7618;
      }

      .cls-3 {
        fill: #ffe0cb;
      }
    </style>
    <radialGradient id="radial-gradient" cx="11.96" cy="9.993" r="19.608" gradientTransform="matrix(1, 0, 0, -1.023, 0, 20.219)" gradientUnits="userSpaceOnUse">
      <stop offset="0" stop-color="#4b3d31"/>
      <stop offset="0.767" stop-color="#241405"/>
    </radialGradient>
  </defs>
  <g id="_icons" transform="translate(-3348 -11996)">
    <path id="Path_22" data-name="Path 22" class="cls-1" d="M14.688,0h.625A14.845,14.845,0,0,1,30,15h0A14.845,14.845,0,0,1,15.313,30h-.625A14.845,14.845,0,0,1,0,15H0A14.845,14.845,0,0,1,14.688,0Z"/>
    <path id="Path_23" data-name="Path 23" class="cls-2" d="M16.8,26.974a12.9,12.9,0,1,0,25.8,0,12.9,12.9,0,1,0-25.8,0Zm1.325,0A11.578,11.578,0,1,1,29.7,38.809,11.71,11.71,0,0,1,18.125,26.974Z" transform="translate(-14.7 -12.038)"/>
    <path id="Path_24" data-name="Path 24" class="cls-3" d="M63.563,52.821A2.43,2.43,0,0,1,65.738,54.2a3.507,3.507,0,0,0-.6.472,2.2,2.2,0,0,1-3.15,0,2.973,2.973,0,0,0-.6-.472A2.43,2.43,0,0,1,63.563,52.821Zm2.4,2.2a1.926,1.926,0,0,1,.012.268A2.861,2.861,0,0,0,68.8,58.17a1.807,1.807,0,0,1,.262.013c-.075.1-.15.191-.225.281a3.128,3.128,0,0,0,0,4.366,1.574,1.574,0,0,1,.225.281,1.807,1.807,0,0,1-.262.013,2.861,2.861,0,0,0-2.825,2.885,1.926,1.926,0,0,1-.012.268,2.515,2.515,0,0,1-.275-.243,2.974,2.974,0,0,0-4.275,0,2.515,2.515,0,0,1-.275.243,1.924,1.924,0,0,1-.013-.268A2.861,2.861,0,0,0,58.3,63.123a1.807,1.807,0,0,1-.263-.013c.075-.1.15-.191.225-.281a3.128,3.128,0,0,0,0-4.366,1.576,1.576,0,0,1-.225-.281,1.807,1.807,0,0,1,.263-.013,2.861,2.861,0,0,0,2.825-2.885,1.924,1.924,0,0,1,.013-.268,2.514,2.514,0,0,1,.275.243,2.974,2.974,0,0,0,4.275,0C65.788,55.17,65.875,55.094,65.963,55.017Zm3.912,3.409a2.5,2.5,0,0,1,0,4.443,3.563,3.563,0,0,0-.463-.613,2.315,2.315,0,0,1,0-3.217A3.247,3.247,0,0,0,69.875,58.426Zm-4.137,8.668a2.4,2.4,0,0,1-4.35,0,3.082,3.082,0,0,0,.6-.472,2.2,2.2,0,0,1,3.15,0A3.2,3.2,0,0,0,65.738,67.094ZM57.25,62.868a2.5,2.5,0,0,1,0-4.443,3.563,3.563,0,0,0,.463.613,2.263,2.263,0,0,1,.65,1.609,2.317,2.317,0,0,1-.65,1.609A3.248,3.248,0,0,0,57.25,62.868Zm6.313,6.013a2.8,2.8,0,0,0,2.525-1.609,3.026,3.026,0,0,0,1.175.243,2.956,2.956,0,0,0,2.138-.906,3.083,3.083,0,0,0,.887-2.183,3.2,3.2,0,0,0-.237-1.2,2.9,2.9,0,0,0,0-5.157,3.2,3.2,0,0,0,.237-1.2,3.105,3.105,0,0,0-.887-2.183,2.956,2.956,0,0,0-2.138-.906,3.026,3.026,0,0,0-1.175.243A2.848,2.848,0,0,0,63.563,52.4a2.811,2.811,0,0,0-2.525,1.621,3.026,3.026,0,0,0-1.175-.243,2.956,2.956,0,0,0-2.137.906,3.083,3.083,0,0,0-.887,2.183,2.977,2.977,0,0,0,.238,1.2,2.9,2.9,0,0,0,0,5.157,3.2,3.2,0,0,0-.238,1.2,3.105,3.105,0,0,0,.887,2.183,2.956,2.956,0,0,0,2.137.906,3.026,3.026,0,0,0,1.175-.243A2.822,2.822,0,0,0,63.563,68.881Zm2.775-2.387a3.214,3.214,0,0,0,.037-.5A2.454,2.454,0,0,1,68.8,63.519a3.136,3.136,0,0,0,.488-.038,2.209,2.209,0,0,1,.2.945,2.34,2.34,0,0,1-.65,1.609,2.169,2.169,0,0,1-1.575.664A2.278,2.278,0,0,1,66.338,66.494Zm2.95-8.681a3.137,3.137,0,0,0-.488-.038A2.454,2.454,0,0,1,66.375,55.3a3.338,3.338,0,0,0-.038-.5,2.087,2.087,0,0,1,.925-.2,2.169,2.169,0,0,1,1.575.664,2.317,2.317,0,0,1,.65,1.609A2.209,2.209,0,0,1,69.288,57.813Zm-8.5-3.013a3.339,3.339,0,0,0-.037.5,2.454,2.454,0,0,1-2.425,2.477,3.137,3.137,0,0,0-.487.038,2.208,2.208,0,0,1-.2-.945,2.34,2.34,0,0,1,.65-1.609,2.169,2.169,0,0,1,1.575-.664A2.278,2.278,0,0,1,60.788,54.8Zm-2.95,8.681a3.018,3.018,0,0,0,.487.038A2.454,2.454,0,0,1,60.75,66a3.338,3.338,0,0,0,.037.5,2.087,2.087,0,0,1-.925.2,2.169,2.169,0,0,1-1.575-.664,2.263,2.263,0,0,1-.65-1.609A2.208,2.208,0,0,1,57.838,63.481Z" transform="translate(-48.563 -45.711)"/>
  </g>
</svg>
